<?xml version="1.0" encoding="UTF-8"?>
<svg xmlns="http://www.w3.org/2000/svg" viewBox="0 0 297.87 84.07">
  <defs>
    <style>
      .cls-1 {
        fill: #fff;
      }

      .cls-2 {
        fill: #1e1d1b;
      }
    </style>
  </defs>
  <g id="Capa_1" data-name="Capa 1">
    <g>
      <path class="cls-2" d="m278.47,69.31c0-.1,0-.2-.1-.3q-.1-.1-.2-.1c-.1,0-.2,0-.2.1q-.1.1-.1.3v7.1l-4.4-7.3c-.1-.1-.2-.2-.3-.2s-.2,0-.2.1c-.1.1-.1.2-.1.3v8.3c0,.1,0,.2.1.3.1.1.2.1.2.1.1,0,.2,0,.2-.1q.1-.1.1-.3v-7.1l4.4,7.3c.1.1.2.2.3.2s.2,0,.2-.1c.1-.1.1-.2.1-.3v-8.3h0Zm-8.3,2.5c0-.4-.1-.8-.2-1.2-.2-.4-.4-.7-.6-.9-.3-.3-.6-.5-1-.6-.4-.2-.7-.2-1.2-.2-.4,0-.8.1-1.2.2-.4.2-.7.4-.9.6-.3.3-.5.6-.6.9-.2.4-.2.8-.2,1.2v3.3c0,.4.1.8.2,1.2.2.4.4.7.6,1,.3.3.6.5.9.6.4.2.8.2,1.2.2s.8-.1,1.2-.2c.4-.2.7-.4,1-.6.3-.3.5-.6.6-1,.2-.4.2-.8.2-1.2v-3.3Zm-.7,3.3c0,.3-.1.6-.2.9s-.3.5-.5.7-.4.4-.7.5c-.3.1-.6.2-.9.2s-.6-.1-.9-.2-.5-.3-.7-.5-.4-.4-.5-.7c-.1-.3-.2-.6-.2-.9v-3.3c0-.3.1-.6.2-.9s.3-.5.5-.7.5-.4.7-.5c.3-.1.6-.2.9-.2s.6.1.9.2.5.3.7.5.4.5.5.7c.1.3.2.6.2.9v3.3Zm-1.4-8.4q-.1-.1-.2-.1t-.2.1l-1.3,1q-.1.1-.1.2c0,.1,0,.2.1.2q.1.1.2.1.1,0,.2-.1l1.3-1q.1-.1.1-.2c-.1,0-.1-.1-.1-.2m-6.1,6.8c0-.1,0-.2-.1-.2-.1-.1-.2-.1-.2-.1h-2.6c-.1,0-.2,0-.3.1q-.1.1-.1.2c0,.1,0,.2.1.2q.1.1.3.1h2.2v1.3c0,.3-.1.6-.2.9s-.3.5-.5.7-.5.4-.7.5c-.3.1-.6.2-.9.2s-.6-.1-.9-.2-.5-.3-.7-.5-.4-.4-.5-.7c-.1-.3-.2-.6-.2-.9v-3.3c0-.3.1-.6.2-.9s.3-.5.5-.7.5-.4.7-.5c.3-.1.6-.2.9-.2s.7.1,1,.2.6.3.9.6l.1.1c.1.1.2.1.3.1s.2,0,.2-.1c.1-.1.1-.2.1-.3s0-.1-.1-.2c-.1-.2-.3-.3-.5-.5-.2-.1-.4-.3-.6-.3-.2-.1-.5-.2-.7-.2s-.5-.1-.7-.1c-.4,0-.8.1-1.2.2-.4.2-.7.4-.9.6-.3.3-.5.6-.6.9-.2.4-.2.8-.2,1.2v3.3c0,.4.1.8.2,1.2.2.4.4.7.6,1,.3.3.6.5.9.6.4.2.7.2,1.2.2.4,0,.8-.1,1.2-.2.4-.2.7-.4,1-.6.3-.3.5-.6.6-1,.2-.4.2-.8.2-1.2v-1.5h0Zm-7.9,4l-2.8-8.3c-.1-.2-.2-.3-.3-.3s-.3.1-.3.3l-2.8,8.3v.1c0,.1,0,.2.1.2.1.1.2.1.2.1q.1,0,.2-.1c.1,0,.1-.1.1-.2l.9-2.6h3.2l.9,2.6c0,.1.1.1.1.2.1,0,.1.1.2.1s.2,0,.3-.1.1-.1.1-.2q-.1,0-.1-.1m-1.8-3h-2.7l1.3-4,1.4,4Zm-6.3,3l-1.8-2.9c.3-.1.5-.2.8-.4.2-.2.4-.4.6-.6.2-.2.3-.5.4-.8.1-.3.1-.6.1-.9,0-.4-.1-.8-.2-1.1-.1-.3-.4-.7-.6-.9-.3-.3-.6-.5-.9-.6-.4-.2-.7-.2-1.1-.2h-2.1c-.1,0-.2,0-.2.1-.1.1-.1.2-.1.2v8.3c0,.1,0,.2.1.3.1.1.2.1.2.1.1,0,.2,0,.2-.1q.1-.1.1-.3v-3h1.9l2,3.1c.1.1.2.2.3.2s.2,0,.3-.1.1-.1.1-.2c-.1-.1-.1-.2-.1-.2m-.9-4.8c-.1.3-.3.5-.5.7s-.4.3-.7.5c-.3.1-.5.2-.8.2h-1.7v-4.4h1.7c.3,0,.6.1.9.2.3.1.5.3.7.5s.4.4.5.7c.1.3.2.5.2.9-.1.2-.1.4-.3.7m-6.6,4.8l-2.8-8.3c-.1-.2-.2-.3-.3-.3s-.3.1-.3.3l-2.8,8.3v.1c0,.1,0,.2.1.2.1.1.2.1.2.1q.1,0,.2-.1c.1,0,.1-.1.1-.2l.9-2.6h3.2l.9,2.6c0,.1.1.1.1.2.1,0,.1.1.2.1s.2,0,.3-.1.1-.1.1-.2t-.1-.1m-1.7-3h-2.7l1.3-4,1.4,4Zm-10,2.9q-.1-.1-.3-.1h-4v-3.7h3.7c.1,0,.2,0,.3-.1s.1-.2.1-.2c0-.1,0-.2-.1-.2q-.1-.1-.3-.1h-3.7v-3.3h4c.1,0,.2,0,.3-.1s.1-.2.1-.2c0-.1,0-.2-.1-.2q-.1-.1-.3-.1h-4.3c-.1,0-.2,0-.2.1-.1.1-.1.2-.1.2v8.3c0,.1,0,.2.1.2q.1.1.2.1h4.3c.1,0,.2,0,.3-.1s.1-.2.1-.2c0-.1-.1-.2-.1-.3m-7.5-5.5c0-.4-.1-.8-.2-1.2-.2-.4-.4-.7-.6-.9-.3-.3-.6-.5-1-.6-.4-.2-.8-.2-1.2-.2h-2.4c-.1,0-.2,0-.2.1-.1.1-.1.2-.1.2v8.3c0,.1,0,.2.1.2q.1.1.2.1h2.4c.4,0,.8-.1,1.2-.2.4-.2.7-.4,1-.6.3-.3.5-.6.6-1,.2-.4.2-.7.2-1.2v-3Zm-.7,3.1c0,.3-.1.6-.2.9-.1.3-.3.5-.5.7s-.5.4-.7.5c-.3.1-.6.2-.9.2h-2.1v-7.6h2.1c.3,0,.6.1.9.2.3.1.5.3.7.5s.4.4.5.7c.1.3.2.6.2.9v3Zm-11.6-.6c-.2-.3-.5-.6-.9-.8-.3-.2-.7-.4-1.1-.5-.4-.1-.8-.3-1.1-.5s-.6-.3-.9-.6c-.2-.2-.3-.5-.3-.9,0-.2,0-.5.1-.6.1-.2.2-.4.4-.5l.6-.3c.2-.1.5-.1.7-.1.3,0,.7.1,1,.2s.6.3.8.6l.1.1h0c.1.1.2.1.3.1s.2,0,.2-.1q.1-.1.1-.2,0-.1-.1-.2c-.1-.2-.3-.4-.5-.5-.2-.2-.4-.3-.6-.4-.2-.1-.5-.2-.7-.2-.2-.1-.5-.1-.7-.1-.3,0-.6.1-.9.1-.3.1-.6.2-.8.4-.2.2-.4.4-.6.7-.1.3-.2.6-.2,1,0,.5.1.9.3,1.2.2.3.5.5.9.7.3.2.7.4,1.1.5.4.1.8.3,1.1.5.4.2.6.4.9.6.2.3.3.6.3,1,0,.2-.1.5-.2.7-.1.2-.3.4-.5.6s-.4.3-.7.4-.6.1-.9.1-.6-.1-1-.2c-.3-.1-.6-.3-.8-.5,0,0-.1,0-.1-.1h0c-.1-.1-.2-.2-.3-.2s-.2,0-.2.1q-.1.1-.1.2,0,.1.1.2c.1.2.3.3.5.5l.6.3c.2.1.4.2.7.2.2,0,.5.1.7.1.4,0,.8-.1,1.1-.2.4-.1.7-.3.9-.5.3-.2.5-.5.6-.8.2-.3.2-.6.2-1,.3-.4.2-.8-.1-1.1m-7,3.1l-2.8-8.3c-.1-.2-.2-.3-.3-.3s-.3.1-.3.3l-2.8,8.3v.1c0,.1,0,.2.1.2.1.1.2.1.2.1q.1,0,.2-.1c.1,0,.1-.1.1-.2l.9-2.6h3.2l.9,2.6c0,.1.1.1.1.2.1,0,.1.1.2.1s.2,0,.3-.1.1-.1.1-.2q-.1,0-.1-.1m-1.8-3h-2.7l1.3-4,1.4,4Zm-6.6-5.2c0-.1,0-.2-.1-.3-.1-.1-.2-.1-.2-.1-.1,0-.2,0-.2.1q-.1.1-.1.3v7.1l-4.4-7.3c-.1-.1-.2-.2-.3-.2s-.2,0-.2.1c-.1.1-.1.2-.1.3v8.3c0,.1,0,.2.1.3.1.1.2.1.2.1.1,0,.2,0,.2-.1q.1-.1.1-.3v-7.1l4.4,7.3c.1.1.2.2.3.2s.2,0,.2-.1c.1-.1.1-.2.1-.3v-8.3Zm-1.6-2.2q-.1,0-.2.1c0,.1-.1.1-.1.2s-.1.1-.1.2c-.1,0-.1.1-.3.1q-.1,0-.2-.1-.1-.1-.2-.2-.1-.1-.2-.2c-.1,0-.2-.1-.4-.1-.1,0-.3,0-.4.1s-.2.1-.3.2-.2.2-.2.3c-.1.1-.1.2-.1.2,0,.1,0,.2.1.2q.1.1.2.1.1,0,.2-.1c0-.1.1-.1.1-.2s.1-.1.1-.2c.1,0,.1-.1.3-.1q.1,0,.2.1c.1,0,.1.1.2.2q.1.1.2.2c.1,0,.2.1.3.1s.3,0,.4-.1c.1-.1.2-.1.3-.2s.2-.2.2-.3c.1-.1.1-.2.1-.2.1-.2,0-.3-.2-.3m-6.3,10.4l-2.8-8.3c-.1-.2-.2-.3-.3-.3s-.3.1-.3.3l-2.8,8.3v.1c0,.1,0,.2.1.2.1.1.2.1.2.1q.1,0,.2-.1c.1,0,.1-.1.1-.2l.9-2.6h3.2l.9,2.6c0,.1.1.1.1.2.1,0,.1.1.2.1s.2,0,.3-.1.1-.1.1-.2q-.1,0-.1-.1m-1.8-3h-2.7l1.3-4,1.4,4Zm-5.1-5.4q-.1-.1-.3-.1h-5.6c-.1,0-.2,0-.3.1s-.1.2-.1.2c0,.1,0,.2.1.2s.1.1.3.1h2.4v8c0,.1,0,.2.1.3q.1.1.2.1c.1,0,.2,0,.2-.1q.1-.1.1-.3v-8h2.4c.1,0,.2,0,.3-.1s.1-.2.1-.2c.2-.1.2-.2.1-.2m-8,.2c0-.1,0-.2-.1-.3-.1-.1-.2-.1-.2-.1-.1,0-.2,0-.2.1q-.1.1-.1.3v7.1l-4.4-7.3c-.1-.1-.2-.2-.3-.2s-.2,0-.2.1c-.1.1-.1.2-.1.3v8.3c0,.1,0,.2.1.3.1.1.2.1.2.1.1,0,.2,0,.2-.1q.1-.1.1-.3v-7.1l4.4,7.3c.1.1.2.2.3.2s.2,0,.2-.1c.1-.1.1-.2.1-.3v-8.3h0Zm-8.3,2.5c0-.4-.1-.8-.2-1.2-.2-.4-.4-.7-.6-.9-.3-.3-.6-.5-1-.6-.4-.2-.7-.2-1.2-.2-.4,0-.8.1-1.2.2-.4.2-.7.4-1,.6-.3.3-.5.6-.6.9-.2.4-.2.8-.2,1.2v3.3c0,.4.1.8.2,1.2.2.4.4.7.6,1,.3.3.6.5,1,.6.4.2.7.2,1.2.2.4,0,.8-.1,1.2-.2.4-.2.7-.4,1-.6.3-.3.5-.6.6-1,.2-.4.2-.8.2-1.2v-3.3Zm-.7,3.3c0,.3-.1.6-.2.9-.1.3-.3.5-.5.7s-.5.4-.7.5c-.3.1-.6.2-.9.2s-.6-.1-.9-.2c-.3-.1-.5-.3-.7-.5s-.4-.4-.5-.7c-.1-.3-.2-.6-.2-.9v-3.3c0-.3.1-.6.2-.9.1-.3.3-.5.5-.7s.5-.4.7-.5c.3-.1.6-.2.9-.2s.6.1.9.2c.3.1.5.3.7.5s.4.5.5.7c.1.3.2.6.2.9v3.3Zm-7.7-5.8c0-.1,0-.2-.1-.3q-.1-.1-.2-.1c-.1,0-.3.1-.3.3l-3.2,7.6-3.2-7.6c-.1-.2-.2-.3-.3-.3s-.2,0-.2.1c-.1.1-.1.2-.1.3v8.3c0,.1,0,.2.1.3.1.1.2.1.2.1,0,0,.2,0,.2-.1q.1-.1.1-.3v-6.6l2.8,6.7c.1.2.2.3.3.3s.2-.1.3-.3l2.8-6.7v6.6c0,.1,0,.2.1.3.1.1.2.1.2.1.1,0,.2,0,.2-.1q.1-.1.1-.3l.2-8.3h0Z"/>
      <path class="cls-2" d="m297.77,34.31c0-1.5-.3-2.9-.8-4.2-.6-1.3-1.3-2.5-2.3-3.4-1-1-2.1-1.7-3.4-2.3-1.3-.6-2.7-.8-4.2-.8s-2.9.3-4.2.8c-1.3.6-2.5,1.3-3.4,2.3-1,1-1.7,2.1-2.3,3.4-.6,1.3-.8,2.7-.8,4.2v19.7c0,.4.1.7.4.9.2.2.5.3.8.3s.6-.1.8-.3c.2-.2.3-.5.3-.9v-19.7c0-1.2.2-2.3.7-3.3.4-1,1-1.9,1.8-2.7.8-.8,1.6-1.4,2.7-1.8,1-.4,2.1-.7,3.3-.7s2.3.2,3.3.7c1,.4,1.9,1,2.7,1.8.8.8,1.4,1.6,1.8,2.7.4,1,.7,2.1.7,3.3v19.7c0,.4.1.7.3.9.2.2.5.3.8.3s.6-.1.8-.3c.2-.2.3-.5.3-.9v-19.7h-.1Zm-29.6,0c0-1.5-.3-2.9-.8-4.2-.6-1.3-1.3-2.5-2.3-3.4-1-1-2.1-1.7-3.4-2.3-1.3-.6-2.7-.8-4.2-.8s-2.9.3-4.2.8c-1.3.6-2.5,1.3-3.4,2.3-1,1-1.7,2.1-2.3,3.4s-.8,2.7-.8,4.2v10.7c0,1.5.3,2.9.8,4.2.6,1.3,1.3,2.5,2.3,3.4,1,1,2.1,1.7,3.4,2.3,1.3.6,2.7.8,4.2.8s2.9-.3,4.2-.8c1.3-.6,2.5-1.3,3.4-2.3,1-1,1.7-2.1,2.3-3.4.6-1.3.8-2.7.8-4.2v-10.7Zm-2.4,10.7c0,1.2-.2,2.3-.7,3.3-.4,1-1,1.9-1.8,2.7s-1.6,1.4-2.7,1.8c-1,.4-2.1.7-3.3.7s-2.3-.2-3.3-.7c-1-.4-1.9-1-2.7-1.8s-1.4-1.6-1.8-2.7c-.4-1-.7-2.1-.7-3.3v-10.7c0-1.2.2-2.3.7-3.3.4-1,1-1.9,1.8-2.7.8-.8,1.6-1.4,2.7-1.8,1-.4,2.1-.7,3.3-.7s2.3.2,3.3.7c1,.4,1.9,1,2.7,1.8.8.8,1.4,1.6,1.8,2.7.4,1,.7,2.1.7,3.3v10.7Zm-27.2-11.9c0-1.3-.3-2.6-.8-3.7-.5-1.2-1.2-2.2-2.1-3-.9-.9-1.9-1.6-3-2.1-1.2-.5-2.4-.8-3.7-.8-1.9,0-3.5.5-5,1.4s-2.6,2.1-3.4,3.6c-.8-1.5-2-2.7-3.4-3.6-1.5-.9-3.1-1.4-5-1.4-1.3,0-2.6.3-3.7.8-1.2.5-2.2,1.2-3,2.1-.9.9-1.6,1.9-2.1,3-.5,1.2-.8,2.4-.8,3.7v20.9c0,.4.1.7.3.9s.5.3.8.3.6-.1.8-.3.4-.5.4-.9v-20.9c0-1,.2-1.9.6-2.8.4-.9.9-1.6,1.6-2.3.7-.7,1.4-1.2,2.3-1.6.9-.4,1.8-.6,2.8-.6s1.9.2,2.8.6c.9.4,1.6.9,2.3,1.6s1.2,1.4,1.6,2.3c.4.9.6,1.8.6,2.8v20.9c0,.4.1.7.4.9.2.2.5.3.8.3s.6-.1.8-.3.3-.5.3-.9v-20.9c0-1,.2-1.9.6-2.8.4-.9.9-1.6,1.6-2.3.7-.7,1.4-1.2,2.3-1.6.9-.4,1.8-.6,2.8-.6s1.9.2,2.8.6c.9.4,1.6.9,2.3,1.6s1.2,1.4,1.6,2.3c.4.9.6,1.8.6,2.8v20.9c0,.4.1.7.3.9s.5.3.8.3.6-.1.8-.3.3-.5.3-.9v-20.9h0Zm-44.1-.2c0-1.4-.2-2.7-.6-3.8-.4-1.1-1.1-2.1-1.9-3-.9-.8-1.9-1.5-3.1-1.9-1.2-.5-2.6-.7-4.1-.7s-2.9.3-4.3.8c-1.4.5-2.6,1.4-3.6,2.6-.2.2-.3.4-.5.6s-.2.5-.2.7c0,.3.1.6.3.8.2.2.5.3.8.3s.6-.2.9-.5c.3-.4.7-.8,1.2-1.2.5-.4,1.2-.8,2-1.2.8-.4,1.9-.6,3.3-.6,2.5,0,4.4.6,5.6,1.9s1.9,3,1.9,5.1v3.1l-8.6,1.9c-1.2.3-2.3.6-3.4,1.1-1.1.5-2,1.1-2.9,1.8s-1.5,1.6-2,2.6-.7,2.2-.7,3.4c0,1.4.3,2.7.8,3.8s1.3,2,2.2,2.8,2,1.3,3.2,1.7,2.5.6,3.8.6c1.4,0,2.6-.2,3.8-.7s2.3-1.1,3.2-1.9c.9-.8,1.6-1.8,2.1-3s.8-2.4.8-3.8v-13.3h0Zm-2.4,13.4c0,1-.2,2-.6,2.8-.4.9-.9,1.6-1.6,2.2-.7.6-1.5,1.1-2.4,1.5-.9.3-1.9.5-3,.5-2.2,0-4.1-.6-5.5-1.7-1.4-1.2-2.1-2.7-2.1-4.8,0-1.7.7-3.2,2-4.3s3-1.9,5-2.4l8.2-1.9v8.1h0Zm-23.2-20.1c-.8-.8-1.9-1.5-3.2-2s-2.5-.7-3.6-.7c-1.6,0-3,.3-4.2.9s-2.2,1.4-3,2.4-1.4,2.2-1.8,3.5c-.4,1.4-.6,2.8-.6,4.4v19.3c0,.4.1.7.3.9s.5.3.8.3.6-.1.8-.3.3-.5.3-.9v-19.3c0-2.7.6-4.9,1.9-6.5,1.3-1.6,3-2.4,5.4-2.4.9,0,1.8.1,2.6.4s1.6.7,2.2,1.2c.2.2.4.3.5.4.2.1.4.2.6.2.3,0,.6-.1.8-.3.3-.2.4-.5.4-.8.2-.1.1-.4-.2-.7m-24.5,6.7c0-1.4-.2-2.7-.6-3.8-.4-1.1-1.1-2.1-1.9-3-.9-.8-1.9-1.5-3.1-1.9-1.2-.5-2.6-.7-4.1-.7s-2.9.3-4.3.8c-1.4.5-2.6,1.4-3.6,2.6-.2.2-.3.4-.5.6s-.2.5-.2.7c0,.3.1.6.3.8.2.2.5.3.8.3s.6-.2.9-.5c.3-.4.7-.8,1.2-1.2.5-.4,1.2-.8,2-1.2.8-.4,1.9-.6,3.3-.6,2.5,0,4.4.6,5.6,1.9s1.9,3,1.9,5.1v3.1l-8.6,1.9c-1.2.3-2.3.6-3.4,1.1-1.1.5-2,1.1-2.9,1.8-.8.7-1.5,1.6-2,2.6s-.7,2.2-.7,3.4c0,1.4.3,2.7.8,3.8s1.3,2,2.2,2.8,2,1.3,3.2,1.7,2.5.6,3.8.6c1.4,0,2.6-.2,3.8-.7s2.3-1.1,3.2-1.9c.9-.8,1.6-1.8,2.1-3s.8-2.4.8-3.8v-13.3h0Zm-2.3,13.4c0,1-.2,2-.6,2.8-.4.9-.9,1.6-1.6,2.2-.7.6-1.5,1.1-2.4,1.5s-1.9.5-3,.5c-2.2,0-4.1-.6-5.5-1.7-1.4-1.2-2.1-2.7-2.1-4.8,0-1.7.7-3.2,2-4.3s3-1.9,5-2.4l8.2-1.9v8.1h0Z"/>
    </g>
  </g>
  <g id="Capa_2" data-name="Capa 2">
    <g>
      <path d="m70.84,69.91c-1.24,2.86-2.67,5.01-3.79,6.47-1.53,1.99-3.08,4.02-5.86,5.59-2.07,1.17-4.02,1.64-5.34,1.85h-.17c-1.32-.21-3.27-.68-5.34-1.85-2.78-1.57-4.34-3.6-5.86-5.59-1.12-1.46-2.55-3.61-3.79-6.47-1.17-3.1-4.12-5.17-7.41-5.2-3.35-.03-6.39,2.05-7.57,5.2-.5,1.34-1.18,2.88-2.13,4.52-1.21,2.09-2.52,3.74-3.67,5-3.47,3.45-8.46,4.66-12.57,3.04-5.36-2.11-8.51-8.74-6.46-15.21,2.98-9.57,6.33-19.52,10.09-29.77,3.69-10.07,7.49-19.64,11.33-28.72C24.68,3.11,30.36-.3,36.09.32c4.77.52,8.93,3.78,10.83,8.4.28.97.71,2.36,1.33,4.02,1.23,3.3,1.88,4.97,3.32,6.2.67.57,1.95,1.45,4.11,1.78h.17c2.16-.33,3.44-1.2,4.11-1.78,1.44-1.23,2.08-2.9,3.32-6.2.62-1.65,1.05-3.05,1.33-4.02,1.9-4.62,6.06-7.87,10.83-8.4,5.73-.63,11.42,2.78,13.81,8.44,3.84,9.08,7.64,18.66,11.33,28.72,3.76,10.25,7.11,20.2,10.09,29.77,2.05,6.47-1.1,13.1-6.46,15.21-4.11,1.62-9.1.42-12.57-3.04-1.15-1.26-2.45-2.91-3.67-5-.95-1.64-1.63-3.18-2.13-4.52-1.19-3.15-4.23-5.23-7.57-5.2-3.29.03-6.25,2.1-7.41,5.2Z"/>
      <path d="m55.68,84.07c-1.98-.31-3.8-.94-5.46-1.88-2.83-1.6-4.41-3.66-5.94-5.66-1.53-1.99-2.81-4.18-3.82-6.52-1.13-2.99-4.01-5.02-7.19-5.05h-.08c-3.21,0-6.12,2.02-7.26,5.04-.58,1.57-1.3,3.11-2.15,4.56-1.05,1.8-2.29,3.5-3.7,5.04-3.57,3.56-8.61,4.77-12.85,3.1-5.65-2.23-8.62-9.19-6.61-15.52,3.1-9.96,6.5-19.98,10.09-29.78,3.53-9.62,7.34-19.29,11.34-28.73C24.46,2.97,30.24-.57,36.12.08c4.86.53,9.08,3.81,11.03,8.55.39,1.36.84,2.71,1.33,4.02,1.27,3.39,1.88,4.93,3.25,6.1,1.05.9,2.39,1.48,3.99,1.72h.13c1.56-.25,2.9-.82,3.95-1.72,1.36-1.16,1.98-2.71,3.25-6.1.49-1.32.94-2.66,1.32-4,1.96-4.77,6.18-8.04,11.04-8.58,5.88-.65,11.66,2.89,14.06,8.6,4,9.45,7.81,19.11,11.34,28.73,3.59,9.8,6.99,19.82,10.09,29.78,2.01,6.33-.96,13.29-6.61,15.52-4.24,1.67-9.28.46-12.84-3.09-1.42-1.55-2.66-3.25-3.71-5.05-.84-1.45-1.56-2.98-2.15-4.56-1.14-3.02-4.05-5.04-7.26-5.04h-.08c-3.17.03-6.06,2.06-7.18,5.04h0c-1.01,2.35-2.3,4.54-3.82,6.53-1.53,2-3.11,4.06-5.94,5.66-1.66.94-3.48,1.57-5.42,1.88h-.21Zm-22.49-19.61h.08c3.38.03,6.45,2.19,7.65,5.36.99,2.29,2.26,4.45,3.75,6.4,1.5,1.96,3.05,3.98,5.79,5.53,1.61.91,3.38,1.52,5.26,1.82h.13c1.84-.3,3.61-.91,5.22-1.82,2.74-1.55,4.29-3.57,5.79-5.53,1.5-1.95,2.76-4.11,3.76-6.41,1.2-3.17,4.27-5.32,7.64-5.36h.08c3.42,0,6.52,2.15,7.73,5.36.57,1.55,1.29,3.06,2.11,4.48,1.03,1.77,2.25,3.44,3.63,4.96,3.42,3.4,8.24,4.57,12.3,2.97,5.41-2.13,8.24-8.82,6.31-14.9-3.1-9.96-6.49-19.97-10.09-29.76-3.52-9.61-7.34-19.27-11.33-28.71C86.68,3.36,81.11-.05,75.46.57c-4.68.51-8.75,3.67-10.62,8.24-.38,1.32-.83,2.68-1.32,4.01-1.21,3.23-1.87,5.01-3.39,6.3-1.12.96-2.55,1.58-4.24,1.83h-.21c-1.73-.26-3.15-.88-4.27-1.83-1.52-1.29-2.18-3.07-3.39-6.3-.5-1.33-.95-2.68-1.33-4.03-1.87-4.55-5.94-7.7-10.61-8.22-5.65-.62-11.23,2.79-13.55,8.29-3.99,9.44-7.8,19.1-11.33,28.71-3.59,9.79-6.98,19.8-10.08,29.76-1.93,6.08.9,12.77,6.31,14.9,4.05,1.6,8.88.43,12.3-2.98,1.37-1.51,2.6-3.18,3.63-4.95.83-1.43,1.54-2.93,2.11-4.48,1.21-3.22,4.31-5.36,7.73-5.36Z"/>
    </g>
    <g>
      <circle cx="104.67" cy="12.61" r="8"/>
      <path d="m104.67,20.86c-4.55,0-8.25-3.7-8.25-8.25s3.7-8.25,8.25-8.25,8.25,3.7,8.25,8.25-3.7,8.25-8.25,8.25Zm0-16c-4.27,0-7.75,3.48-7.75,7.75s3.48,7.75,7.75,7.75,7.75-3.48,7.75-7.75-3.48-7.75-7.75-7.75Z"/>
    </g>
    <circle class="cls-1" cx="34.57" cy="41.81" r="6.51"/>
  </g>
</svg>